# xmcd
#
# Track frame offsets: 
#        180
#        13727
#        27172
#        39804
#        54111
#        66357
#        79833
#        94413
#        108283
#        121138
#        136309
#        148757
#        161424
#        173709
#        187908
#        201430
#        217957
#        229956
#        243031
#        255657
#        270409
#        289222
#        300637
#        310366
#
# Disc length: 4270 seconds
#
# Revision: 0
# Processed by: cddbd v1.5.2PL0 Copyright (c) Steve Scherf et al.
# Submitted via: ExactAudioCopy v0.95b4
#
DISCID=4910ac18
DTITLE=Various Artist - Blues Generations Vol. 1 [CD 1]
DYEAR=2006
DGENRE=Blues
TTITLE0=Blind Lemon Jefferson - Matchbox
TTITLE1=Big Bill Bronzy - At the Break of Day
TTITLE2=John Lee Williamson - Black Gal Blues
TTITLE3=Sony Boy Williams - My Little Cornelius
TTITLE4=Peter Chatman and His Washboard Band - Blues at Midnight
TTITLE5=Champion Jack Dupree - Cabbage Greens No. 1
TTITLE6=Big Joe Williams - Break 'em on Down
TTITLE7=Muddy Waters - I Be's Troubled
TTITLE8=Brownie Mc Ghee - I'm a Black Woman's Man
TTITLE9=Muddy Waters - 32 - 20 Blues
TTITLE10=John Lee Williamson - Check Up on My Baby Blues
TTITLE11=Lightnin' Hopkins - Fast Mail Rambler
TTITLE12=Arthur Big Boy Crudup - Gonny Be Some Changes Made
TTITLE13=Arthur Big Boy Crudup - Cry Your Blues Away
TTITLE14=Lonnie Johnson - Blackwater Blues
TTITLE15=John Lee Hooker - Helpless Blues
TTITLE16=T-Bone Walker - Dream Girl Blues
TTITLE17=John Lee Hooker - Do My Baby Think of Me
TTITLE18=John Lee Hooker - Hobo Blues
TTITLE19=Clarence Johnson - Gulf Coast Blues
TTITLE20=John Lee Hooker - I Feel Good
TTITLE21=John Lee Hooker - Misbelieving Baby
TTITLE22=John Lee Hooker - Onions
TTITLE23=John Lee Hooker - I Wanna Talk
EXTD=
EXTT0=
EXTT1=
EXTT2=
EXTT3=
EXTT4=
EXTT5=
EXTT6=
EXTT7=
EXTT8=
EXTT9=
EXTT10=
EXTT11=
EXTT12=
EXTT13=
EXTT14=
EXTT15=
EXTT16=
EXTT17=
EXTT18=
EXTT19=
EXTT20=
EXTT21=
EXTT22=
EXTT23=
PLAYORDER=
